<?xml version="1.0" standalone="no"?>
<!DOCTYPE svg PUBLIC "-//W3C//DTD SVG 20010904//EN"
 "http://www.w3.org/TR/2001/REC-SVG-20010904/DTD/svg10.dtd">
<svg version="1.0" xmlns="http://www.w3.org/2000/svg"
 width="200.000000pt" height="200.000000pt" viewBox="0 0 200.000000 200.000000"
 preserveAspectRatio="xMidYMid meet">
<metadata>
Created by potrace 1.11, written by Peter Selinger 2001-2013
</metadata>
<g transform="translate(0.000000,200.000000) scale(0.100000,-0.100000)"
fill="#000000" stroke="none">
<path d="M0 1000 l0 -1000 1000 0 1000 0 0 1000 0 1000 -1000 0 -1000 0 0
-1000z m1388 485 c59 -50 83 -196 41 -249 -14 -18 -30 -26 -53 -26 -26 0 -40
9 -78 53 -56 65 -91 77 -217 77 -128 0 -133 -5 -129 -148 l3 -107 37 -9 c67
-17 91 4 117 101 19 69 81 69 118 0 15 -26 18 -57 18 -162 0 -113 -3 -135 -21
-170 -23 -44 -64 -66 -91 -49 -9 5 -22 32 -28 59 -15 57 -35 75 -86 75 -56 0
-61 -14 -57 -140 4 -141 3 -140 148 -140 94 0 112 3 158 26 39 20 59 37 79 72
39 69 63 92 95 92 91 0 91 -156 0 -300 l-28 -45 -425 4 c-233 2 -432 7 -441
12 -47 25 -43 78 7 102 19 9 41 29 49 45 34 66 37 563 3 643 -10 25 -26 40
-56 53 -36 17 -41 23 -41 52 0 36 20 61 53 69 12 2 173 6 357 8 200 3 347 8
365 15 48 17 71 14 103 -13z"/>
</g>
</svg>
